<svg xmlns="http://www.w3.org/2000/svg" width="1200" height="720" viewBox="0 0 1200 720"><rect width="1200" height="720" fill="#f5f9fd"/><text x="60" y="70" font-family="Inter,Arial,sans-serif" font-size="38" font-weight="750" fill="#17324d" text-anchor="start">PCA Rotates Toward Maximum Variance</text><text x="60" y="108" font-family="Inter,Arial,sans-serif" font-size="20" font-weight="450" fill="#5c7185" text-anchor="start">The first component follows the longest direction of the cloud.</text><rect x="90" y="150" width="1020" height="500" rx="22" fill="#fff" stroke="#dce8f3" stroke-width="2"/><line x1="150" y1="590" x2="1060" y2="590" stroke="#273444" stroke-width="3" /><line x1="150" y1="190" x2="150" y2="590" stroke="#273444" stroke-width="3" /><circle cx="250" cy="520" r="8" fill="#79b5e8" stroke="#fff" stroke-width="2"/><circle cx="300" cy="490" r="8" fill="#79b5e8" stroke="#fff" stroke-width="2"/><circle cx="350" cy="470" r="8" fill="#79b5e8" stroke="#fff" stroke-width="2"/><circle cx="395" cy="430" r="8" fill="#79b5e8" stroke="#fff" stroke-width="2"/><circle cx="440" cy="420" r="8" fill="#79b5e8" stroke="#fff" stroke-width="2"/><circle cx="480" cy="385" r="8" fill="#79b5e8" stroke="#fff" stroke-width="2"/><circle cx="530" cy="370" r="8" fill="#79b5e8" stroke="#fff" stroke-width="2"/><circle cx="575" cy="330" r="8" fill="#79b5e8" stroke="#fff" stroke-width="2"/><circle cx="620" cy="315" r="8" fill="#79b5e8" stroke="#fff" stroke-width="2"/><circle cx="670" cy="280" r="8" fill="#79b5e8" stroke="#fff" stroke-width="2"/><circle cx="720" cy="265" r="8" fill="#79b5e8" stroke="#fff" stroke-width="2"/><circle cx="770" cy="230" r="8" fill="#79b5e8" stroke="#fff" stroke-width="2"/><circle cx="820" cy="220" r="8" fill="#79b5e8" stroke="#fff" stroke-width="2"/><circle cx="865" cy="190" r="8" fill="#79b5e8" stroke="#fff" stroke-width="2"/><circle cx="800" cy="190" r="8" fill="#79b5e8" stroke="none" stroke-width="0"/><text x="818" y="197" font-family="Inter,Arial,sans-serif" font-size="17" font-weight="600" fill="#273444" text-anchor="start">observations</text><line x1="250" y1="540" x2="900" y2="170" stroke="#3977c5" stroke-width="4" /><polygon points="900,170 885,161 885,179" fill="#3977c5"/><line x1="470" y1="450" x2="350" y2="250" stroke="#39a6a3" stroke-width="4" /><polygon points="350,250 335,241 335,259" fill="#39a6a3"/><text x="910" y="175" font-family="Inter,Arial,sans-serif" font-size="23" font-weight="700" fill="#3977c5" text-anchor="start">PC1</text><text x="330" y="240" font-family="Inter,Arial,sans-serif" font-size="23" font-weight="700" fill="#39a6a3" text-anchor="start">PC2</text></svg>